<?xml version="1.0" encoding="UTF-8"?>
<svg xmlns="http://www.w3.org/2000/svg" xmlns:xlink="http://www.w3.org/1999/xlink" viewBox="0 0 24 24" version="1.1" width="24px" height="24px">
<g id="surface1">
<path style=" " d="M 12 0 C 5.300781 0 1 4.007813 1 8.90625 C 1 11.707031 2.289063 14.585938 2.6875 15.6875 C 2.585938 16.585938 2.789063 17.40625 3.1875 17.90625 C 3.988281 18.804688 6.8125 19.105469 6.8125 20.40625 C 6.8125 21.90625 7.3125 22.585938 8.3125 23.1875 C 8.613281 23.585938 9.011719 23.695313 9.3125 23.59375 C 9.613281 23.992188 10.195313 24.113281 10.59375 23.8125 C 10.992188 24.113281 11.605469 24.113281 11.90625 23.8125 C 11.957031 23.773438 11.972656 23.695313 12 23.625 C 12.027344 23.695313 12.042969 23.773438 12.09375 23.8125 C 12.394531 24.113281 13.007813 24.113281 13.40625 23.8125 C 13.804688 24.113281 14.386719 23.992188 14.6875 23.59375 C 14.988281 23.695313 15.386719 23.585938 15.6875 23.1875 C 16.6875 22.585938 17.1875 21.90625 17.1875 20.40625 C 17.1875 19.105469 20.011719 18.804688 20.8125 17.90625 C 21.210938 17.40625 21.414063 16.585938 21.3125 15.6875 C 21.710938 14.585938 23 11.707031 23 8.90625 C 23 4.007813 18.699219 0 12 0 Z M 12 2 C 16.398438 2 21.3125 3.695313 21.3125 9.09375 C 21.3125 11.59375 20.988281 12.289063 20.6875 13.1875 C 20.585938 11.386719 19.09375 10.3125 19.09375 10.3125 C 19.09375 10.3125 20.59375 15.199219 19.09375 16.5 C 18.894531 16.699219 18.304688 16.988281 17.90625 17.1875 C 16.804688 17.585938 15.40625 18.710938 15.40625 20.3125 C 15.40625 21.613281 15.207031 22.105469 14.40625 21.90625 C 14.304688 22.507813 13.414063 22.5 13.3125 22 C 13.113281 22.5 12.292969 22.5 12.09375 22 C 12.09375 22 12.039063 22.273438 12 22.46875 C 11.960938 22.273438 11.90625 22 11.90625 22 C 11.707031 22.5 10.886719 22.5 10.6875 22 C 10.585938 22.5 9.695313 22.507813 9.59375 21.90625 C 8.792969 22.105469 8.59375 21.613281 8.59375 20.3125 C 8.59375 18.710938 7.195313 17.585938 6.09375 17.1875 C 5.695313 16.988281 5.105469 16.699219 4.90625 16.5 C 3.40625 15.199219 4.90625 10.3125 4.90625 10.3125 C 4.90625 10.3125 3.414063 11.386719 3.3125 13.1875 C 3.011719 12.289063 2.6875 11.59375 2.6875 9.09375 C 2.6875 3.695313 7.601563 2 12 2 Z M 8.53125 11.03125 C 7.507813 11.078125 6.6875 11.710938 6.3125 12.6875 C 5.613281 14.6875 6.292969 15.613281 7.09375 15.8125 C 8.792969 16.414063 10.40625 15.695313 10.90625 14.09375 C 11.304688 13.09375 10.792969 11.585938 9.59375 11.1875 C 9.21875 11.0625 8.871094 11.015625 8.53125 11.03125 Z M 15.46875 11.03125 C 15.128906 11.015625 14.78125 11.0625 14.40625 11.1875 C 13.207031 11.585938 12.695313 13.09375 13.09375 14.09375 C 13.59375 15.695313 15.207031 16.414063 16.90625 15.8125 C 17.707031 15.613281 18.386719 14.6875 17.6875 12.6875 C 17.3125 11.710938 16.492188 11.078125 15.46875 11.03125 Z M 12 15.8125 C 11.398438 16.011719 10.40625 17.511719 10.40625 18.3125 C 10.40625 18.710938 10.699219 18.90625 11 18.90625 C 11.5 18.90625 11.90625 18.085938 11.90625 17.6875 C 12.007813 18.085938 12.3125 18.90625 12.8125 18.90625 C 13.113281 18.90625 13.40625 18.710938 13.40625 18.3125 C 13.605469 17.613281 12.601563 16.011719 12 15.8125 Z "/>
</g>
</svg>
